{
    "asset" : {
        "generator" : "Khronos glTF Blender I/O v1.8.19",
        "version" : "2.0"
    },
    "scene" : 0,
    "scenes" : [
        {
            "name" : "Scene",
            "nodes" : [
                0,
                1
            ]
        }
    ],
    "nodes" : [
        {
            "mesh" : 0,
            "name" : "Plane",
            "rotation" : [
                0,
                -0.057738449424505234,
                0,
                -0.9983317255973816
            ],
            "translation" : [
                0,
                -0.003000000026077032,
                0
            ]
        },
        {
            "mesh" : 1,
            "name" : "WateringCan"
        }
    ],
    "materials" : [
        {
            "doubleSided" : true,
            "name" : "ground",
            "pbrMetallicRoughness" : {}
        },
        {
            "doubleSided" : true,
            "name" : "WC_PlasticYellow",
            "normalTexture" : {
                "index" : 0,
                "scale" : 1.5
            },
            "pbrMetallicRoughness" : {
                "baseColorFactor" : [
                    1.3616849184036255,
                    0.4579697549343109,
                    0.01763037219643593,
                    1
                ],
                "metallicFactor" : 0,
                "roughnessFactor" : 0.15000000596046448
            }
        },
        {
            "doubleSided" : true,
            "name" : "WC_PlasticGreenRough",
            "normalTexture" : {
                "index" : 1
            },
            "pbrMetallicRoughness" : {
                "baseColorFactor" : [
                    0.0395672544836998,
                    0.18170635402202606,
                    0.02502293325960636,
                    1
                ],
                "metallicFactor" : 0,
                "roughnessFactor" : 0.5
            }
        },
        {
            "doubleSided" : true,
            "name" : "WC_PlasticGreenSmooth",
            "normalTexture" : {
                "index" : 2,
                "scale" : 0.5
            },
            "pbrMetallicRoughness" : {
                "baseColorFactor" : [
                    0.0395672544836998,
                    0.18170635402202606,
                    0.02502293325960636,
                    1
                ],
                "metallicFactor" : 0,
                "roughnessFactor" : 0.5
            }
        },
        {
            "doubleSided" : true,
            "name" : "WC_PlasticRed",
            "pbrMetallicRoughness" : {
                "baseColorFactor" : [
                    0.8724054098129272,
                    0.03620309755206108,
                    0.012233145534992218,
                    1
                ],
                "metallicFactor" : 0,
                "roughnessFactor" : 0.15000000596046448
            }
        },
        {
            "alphaMode" : "BLEND",
            "doubleSided" : true,
            "name" : "WC_plasticYellowHoles",
            "pbrMetallicRoughness" : {
                "baseColorFactor" : [
                    1.257238507270813,
                    0.3128468096256256,
                    0.009996875189244747,
                    1
                ],
                "metallicFactor" : 0,
                "roughnessFactor" : 0.15000000596046448
            }
        },
        {
            "doubleSided" : true,
            "name" : "WC_PlasticReDark",
            "pbrMetallicRoughness" : {
                "baseColorFactor" : [
                    0.475528359413147,
                    0.04019264131784439,
                    0.0187614057213068,
                    1
                ],
                "metallicFactor" : 0,
                "roughnessFactor" : 0.10000000149011612
            }
        }
    ],
    "meshes" : [
        {
            "name" : "Plane",
            "primitives" : [
                {
                    "attributes" : {
                        "POSITION" : 0,
                        "NORMAL" : 1,
                        "TEXCOORD_0" : 2
                    },
                    "indices" : 3,
                    "material" : 0
                }
            ]
        },
        {
            "name" : "Cube.001",
            "primitives" : [
                {
                    "attributes" : {
                        "POSITION" : 4,
                        "NORMAL" : 5,
                        "TEXCOORD_0" : 6,
                        "TEXCOORD_1" : 7,
                        "TEXCOORD_2" : 8,
                        "COLOR_0" : 9
                    },
                    "indices" : 10,
                    "material" : 1
                },
                {
                    "attributes" : {
                        "POSITION" : 11,
                        "NORMAL" : 12,
                        "TEXCOORD_0" : 13,
                        "TEXCOORD_1" : 14,
                        "TEXCOORD_2" : 15,
                        "COLOR_0" : 16
                    },
                    "indices" : 17,
                    "material" : 2
                },
                {
                    "attributes" : {
                        "POSITION" : 18,
                        "NORMAL" : 19,
                        "TEXCOORD_0" : 20,
                        "TEXCOORD_1" : 21,
                        "TEXCOORD_2" : 22,
                        "COLOR_0" : 23
                    },
                    "indices" : 24,
                    "material" : 3
                },
                {
                    "attributes" : {
                        "POSITION" : 25,
                        "NORMAL" : 26,
                        "TEXCOORD_0" : 27,
                        "TEXCOORD_1" : 28,
                        "TEXCOORD_2" : 29,
                        "COLOR_0" : 30
                    },
                    "indices" : 31,
                    "material" : 4
                },
                {
                    "attributes" : {
                        "POSITION" : 32,
                        "NORMAL" : 33,
                        "TEXCOORD_0" : 34,
                        "TEXCOORD_1" : 35,
                        "TEXCOORD_2" : 36,
                        "COLOR_0" : 37
                    },
                    "indices" : 38,
                    "material" : 5
                },
                {
                    "attributes" : {
                        "POSITION" : 39,
                        "NORMAL" : 40,
                        "TEXCOORD_0" : 41,
                        "TEXCOORD_1" : 42,
                        "TEXCOORD_2" : 43,
                        "COLOR_0" : 44
                    },
                    "indices" : 45,
                    "material" : 6
                }
            ]
        }
    ],
    "textures" : [
        {
            "sampler" : 0,
            "source" : 0
        },
        {
            "sampler" : 0,
            "source" : 0
        },
        {
            "sampler" : 0,
            "source" : 0
        }
    ],
    "images" : [
        {
            "mimeType" : "image/png",
            "name" : "WC_FinalNormalMap2k",
            "uri" : "WC_FinalNormalMap2k.png"
        }
    ],
    "accessors" : [
        {
            "bufferView" : 0,
            "componentType" : 5126,
            "count" : 19,
            "max" : [
                2.466003656387329,
                0.6729899644851685,
                2.466003656387329
            ],
            "min" : [
                -2.466003656387329,
                0,
                -2.466003656387329
            ],
            "type" : "VEC3"
        },
        {
            "bufferView" : 1,
            "componentType" : 5126,
            "count" : 19,
            "type" : "VEC3"
        },
        {
            "bufferView" : 2,
            "componentType" : 5126,
            "count" : 19,
            "type" : "VEC2"
        },
        {
            "bufferView" : 3,
            "componentType" : 5123,
            "count" : 66,
            "type" : "SCALAR"
        },
        {
            "bufferView" : 4,
            "componentType" : 5126,
            "count" : 122,
            "max" : [
                0.038865845650434494,
                0.23156510293483734,
                0.07281584292650223
            ],
            "min" : [
                -0.038865845650434494,
                0.18841730058193207,
                0.008044997230172157
            ],
            "type" : "VEC3"
        },
        {
            "bufferView" : 5,
            "componentType" : 5126,
            "count" : 122,
            "type" : "VEC3"
        },
        {
            "bufferView" : 6,
            "componentType" : 5126,
            "count" : 122,
            "type" : "VEC2"
        },
        {
            "bufferView" : 7,
            "componentType" : 5126,
            "count" : 122,
            "type" : "VEC2"
        },
        {
            "bufferView" : 8,
            "componentType" : 5126,
            "count" : 122,
            "type" : "VEC2"
        },
        {
            "bufferView" : 9,
            "componentType" : 5123,
            "count" : 122,
            "normalized" : true,
            "type" : "VEC4"
        },
        {
            "bufferView" : 10,
            "componentType" : 5123,
            "count" : 588,
            "type" : "SCALAR"
        },
        {
            "bufferView" : 11,
            "componentType" : 5126,
            "count" : 736,
            "max" : [
                0.05079442262649536,
                0.23803342878818512,
                0.42237550020217896
            ],
            "min" : [
                -0.05079442262649536,
                0.0001930710714077577,
                -0.0005503473803400993
            ],
            "type" : "VEC3"
        },
        {
            "bufferView" : 12,
            "componentType" : 5126,
            "count" : 736,
            "type" : "VEC3"
        },
        {
            "bufferView" : 13,
            "componentType" : 5126,
            "count" : 736,
            "type" : "VEC2"
        },
        {
            "bufferView" : 14,
            "componentType" : 5126,
            "count" : 736,
            "type" : "VEC2"
        },
        {
            "bufferView" : 15,
            "componentType" : 5126,
            "count" : 736,
            "type" : "VEC2"
        },
        {
            "bufferView" : 16,
            "componentType" : 5123,
            "count" : 736,
            "normalized" : true,
            "type" : "VEC4"
        },
        {
            "bufferView" : 17,
            "componentType" : 5123,
            "count" : 2658,
            "type" : "SCALAR"
        },
        {
            "bufferView" : 18,
            "componentType" : 5126,
            "count" : 22,
            "max" : [
                0.031873904168605804,
                0.004185293801128864,
                0.1946953386068344
            ],
            "min" : [
                -0.031873904168605804,
                0.00418529286980629,
                0.08516489714384079
            ],
            "type" : "VEC3"
        },
        {
            "bufferView" : 19,
            "componentType" : 5126,
            "count" : 22,
            "type" : "VEC3"
        },
        {
            "bufferView" : 20,
            "componentType" : 5126,
            "count" : 22,
            "type" : "VEC2"
        },
        {
            "bufferView" : 21,
            "componentType" : 5126,
            "count" : 22,
            "type" : "VEC2"
        },
        {
            "bufferView" : 22,
            "componentType" : 5126,
            "count" : 22,
            "type" : "VEC2"
        },
        {
            "bufferView" : 23,
            "componentType" : 5123,
            "count" : 22,
            "normalized" : true,
            "type" : "VEC4"
        },
        {
            "bufferView" : 24,
            "componentType" : 5123,
            "count" : 96,
            "type" : "SCALAR"
        },
        {
            "bufferView" : 25,
            "componentType" : 5126,
            "count" : 81,
            "max" : [
                0.03749712556600571,
                0.3095995783805847,
                0.4792839586734772
            ],
            "min" : [
                -0.03776504844427109,
                0.22073112428188324,
                0.40518975257873535
            ],
            "type" : "VEC3"
        },
        {
            "bufferView" : 26,
            "componentType" : 5126,
            "count" : 81,
            "type" : "VEC3"
        },
        {
            "bufferView" : 27,
            "componentType" : 5126,
            "count" : 81,
            "type" : "VEC2"
        },
        {
            "bufferView" : 28,
            "componentType" : 5126,
            "count" : 81,
            "type" : "VEC2"
        },
        {
            "bufferView" : 29,
            "componentType" : 5126,
            "count" : 81,
            "type" : "VEC2"
        },
        {
            "bufferView" : 30,
            "componentType" : 5123,
            "count" : 81,
            "normalized" : true,
            "type" : "VEC4"
        },
        {
            "bufferView" : 31,
            "componentType" : 5123,
            "count" : 384,
            "type" : "SCALAR"
        },
        {
            "bufferView" : 32,
            "componentType" : 5126,
            "count" : 33,
            "max" : [
                0.034542109817266464,
                0.3077514171600342,
                0.47742995619773865
            ],
            "min" : [
                -0.034810032695531845,
                0.25777772068977356,
                0.4272996783256531
            ],
            "type" : "VEC3"
        },
        {
            "bufferView" : 33,
            "componentType" : 5126,
            "count" : 33,
            "type" : "VEC3"
        },
        {
            "bufferView" : 34,
            "componentType" : 5126,
            "count" : 33,
            "type" : "VEC2"
        },
        {
            "bufferView" : 35,
            "componentType" : 5126,
            "count" : 33,
            "type" : "VEC2"
        },
        {
            "bufferView" : 36,
            "componentType" : 5126,
            "count" : 33,
            "type" : "VEC2"
        },
        {
            "bufferView" : 37,
            "componentType" : 5123,
            "count" : 33,
            "normalized" : true,
            "type" : "VEC4"
        },
        {
            "bufferView" : 38,
            "componentType" : 5123,
            "count" : 168,
            "type" : "SCALAR"
        },
        {
            "bufferView" : 39,
            "componentType" : 5126,
            "count" : 36,
            "max" : [
                0.01418188214302063,
                0.24045541882514954,
                0.42497584223747253
            ],
            "min" : [
                -0.014449863694608212,
                0.20089982450008392,
                0.3852962851524353
            ],
            "type" : "VEC3"
        },
        {
            "bufferView" : 40,
            "componentType" : 5126,
            "count" : 36,
            "type" : "VEC3"
        },
        {
            "bufferView" : 41,
            "componentType" : 5126,
            "count" : 36,
            "type" : "VEC2"
        },
        {
            "bufferView" : 42,
            "componentType" : 5126,
            "count" : 36,
            "type" : "VEC2"
        },
        {
            "bufferView" : 43,
            "componentType" : 5126,
            "count" : 36,
            "type" : "VEC2"
        },
        {
            "bufferView" : 44,
            "componentType" : 5123,
            "count" : 36,
            "normalized" : true,
            "type" : "VEC4"
        },
        {
            "bufferView" : 45,
            "componentType" : 5123,
            "count" : 144,
            "type" : "SCALAR"
        }
    ],
    "bufferViews" : [
        {
            "buffer" : 0,
            "byteLength" : 228,
            "byteOffset" : 0
        },
        {
            "buffer" : 0,
            "byteLength" : 228,
            "byteOffset" : 228
        },
        {
            "buffer" : 0,
            "byteLength" : 152,
            "byteOffset" : 456
        },
        {
            "buffer" : 0,
            "byteLength" : 132,
            "byteOffset" : 608
        },
        {
            "buffer" : 0,
            "byteLength" : 1464,
            "byteOffset" : 740
        },
        {
            "buffer" : 0,
            "byteLength" : 1464,
            "byteOffset" : 2204
        },
        {
            "buffer" : 0,
            "byteLength" : 976,
            "byteOffset" : 3668
        },
        {
            "buffer" : 0,
            "byteLength" : 976,
            "byteOffset" : 4644
        },
        {
            "buffer" : 0,
            "byteLength" : 976,
            "byteOffset" : 5620
        },
        {
            "buffer" : 0,
            "byteLength" : 976,
            "byteOffset" : 6596
        },
        {
            "buffer" : 0,
            "byteLength" : 1176,
            "byteOffset" : 7572
        },
        {
            "buffer" : 0,
            "byteLength" : 8832,
            "byteOffset" : 8748
        },
        {
            "buffer" : 0,
            "byteLength" : 8832,
            "byteOffset" : 17580
        },
        {
            "buffer" : 0,
            "byteLength" : 5888,
            "byteOffset" : 26412
        },
        {
            "buffer" : 0,
            "byteLength" : 5888,
            "byteOffset" : 32300
        },
        {
            "buffer" : 0,
            "byteLength" : 5888,
            "byteOffset" : 38188
        },
        {
            "buffer" : 0,
            "byteLength" : 5888,
            "byteOffset" : 44076
        },
        {
            "buffer" : 0,
            "byteLength" : 5316,
            "byteOffset" : 49964
        },
        {
            "buffer" : 0,
            "byteLength" : 264,
            "byteOffset" : 55280
        },
        {
            "buffer" : 0,
            "byteLength" : 264,
            "byteOffset" : 55544
        },
        {
            "buffer" : 0,
            "byteLength" : 176,
            "byteOffset" : 55808
        },
        {
            "buffer" : 0,
            "byteLength" : 176,
            "byteOffset" : 55984
        },
        {
            "buffer" : 0,
            "byteLength" : 176,
            "byteOffset" : 56160
        },
        {
            "buffer" : 0,
            "byteLength" : 176,
            "byteOffset" : 56336
        },
        {
            "buffer" : 0,
            "byteLength" : 192,
            "byteOffset" : 56512
        },
        {
            "buffer" : 0,
            "byteLength" : 972,
            "byteOffset" : 56704
        },
        {
            "buffer" : 0,
            "byteLength" : 972,
            "byteOffset" : 57676
        },
        {
            "buffer" : 0,
            "byteLength" : 648,
            "byteOffset" : 58648
        },
        {
            "buffer" : 0,
            "byteLength" : 648,
            "byteOffset" : 59296
        },
        {
            "buffer" : 0,
            "byteLength" : 648,
            "byteOffset" : 59944
        },
        {
            "buffer" : 0,
            "byteLength" : 648,
            "byteOffset" : 60592
        },
        {
            "buffer" : 0,
            "byteLength" : 768,
            "byteOffset" : 61240
        },
        {
            "buffer" : 0,
            "byteLength" : 396,
            "byteOffset" : 62008
        },
        {
            "buffer" : 0,
            "byteLength" : 396,
            "byteOffset" : 62404
        },
        {
            "buffer" : 0,
            "byteLength" : 264,
            "byteOffset" : 62800
        },
        {
            "buffer" : 0,
            "byteLength" : 264,
            "byteOffset" : 63064
        },
        {
            "buffer" : 0,
            "byteLength" : 264,
            "byteOffset" : 63328
        },
        {
            "buffer" : 0,
            "byteLength" : 264,
            "byteOffset" : 63592
        },
        {
            "buffer" : 0,
            "byteLength" : 336,
            "byteOffset" : 63856
        },
        {
            "buffer" : 0,
            "byteLength" : 432,
            "byteOffset" : 64192
        },
        {
            "buffer" : 0,
            "byteLength" : 432,
            "byteOffset" : 64624
        },
        {
            "buffer" : 0,
            "byteLength" : 288,
            "byteOffset" : 65056
        },
        {
            "buffer" : 0,
            "byteLength" : 288,
            "byteOffset" : 65344
        },
        {
            "buffer" : 0,
            "byteLength" : 288,
            "byteOffset" : 65632
        },
        {
            "buffer" : 0,
            "byteLength" : 288,
            "byteOffset" : 65920
        },
        {
            "buffer" : 0,
            "byteLength" : 288,
            "byteOffset" : 66208
        }
    ],
    "samplers" : [
        {
            "magFilter" : 9729,
            "minFilter" : 9987
        }
    ],
    "buffers" : [
        {
            "byteLength" : 66496,
            "uri" : "WateringCan.bin"
        }
    ]
}
