{
  "accessors": [
    {
      "bufferView": 2,
      "componentType": 5126,
      "count": 6699,
      "max": [
        0.24634365737438202,
        0.1944667100906372,
        1.4213162660598755
      ],
      "min": [
        -0.4385192394256592,
        -0.2072702944278717,
        0.9152785539627075
      ],
      "type": "VEC3"
    },
    {
      "bufferView": 2,
      "byteOffset": 80388,
      "componentType": 5126,
      "count": 6699,
      "max": [
        0.9997939467430115,
        0.9999892711639404,
        0.9998147487640381
      ],
      "min": [
        -0.9997719526290894,
        -0.9993340969085693,
        -1.0
      ],
      "type": "VEC3"
    },
    {
      "bufferView": 3,
      "componentType": 5126,
      "count": 6699,
      "max": [
        0.5686274766921997,
        0.6745098233222961,
        0.29019609093666077,
        1.0
      ],
      "min": [
        0.364705890417099,
        0.4941176474094391,
        0.09019608050584793,
        1.0
      ],
      "type": "VEC4"
    },
    {
      "bufferView": 1,
      "componentType": 5126,
      "count": 6699,
      "max": [
        0.9997599720954895,
        0.772159993648529
      ],
      "min": [
        0.00139999995008111,
        0.0063599999994039536
      ],
      "type": "VEC2"
    },
    {
      "bufferView": 0,
      "componentType": 5125,
      "count": 36864,
      "type": "SCALAR"
    },
    {
      "bufferView": 2,
      "byteOffset": 160776,
      "componentType": 5126,
      "count": 8102,
      "max": [
        0.2878222167491913,
        -0.27796056866645813,
        0.6638595461845398
      ],
      "min": [
        -0.28782224655151367,
        -0.3599878251552582,
        0.5500237345695496
      ],
      "type": "VEC3"
    },
    {
      "bufferView": 2,
      "byteOffset": 258000,
      "componentType": 5126,
      "count": 8102,
      "max": [
        0.999843180179596,
        0.9864509701728821,
        0.99955153465271
      ],
      "min": [
        -0.9998432993888855,
        -0.9999622106552124,
        -0.9110424518585205
      ],
      "type": "VEC3"
    },
    {
      "bufferView": 3,
      "byteOffset": 107184,
      "componentType": 5126,
      "count": 8102,
      "max": [
        1.0,
        1.0,
        1.0,
        1.0
      ],
      "min": [
        0.26274511218070984,
        0.21568627655506134,
        0.27843138575553894,
        1.0
      ],
      "type": "VEC4"
    },
    {
      "bufferView": 1,
      "byteOffset": 53592,
      "componentType": 5126,
      "count": 8102,
      "max": [
        0.7424399852752686,
        0.6348999738693237
      ],
      "min": [
        0.24740000069141388,
        0.5302000045776367
      ],
      "type": "VEC2"
    },
    {
      "bufferView": 0,
      "byteOffset": 147456,
      "componentType": 5125,
      "count": 46080,
      "type": "SCALAR"
    },
    {
      "bufferView": 2,
      "byteOffset": 355224,
      "componentType": 5126,
      "count": 25716,
      "max": [
        0.42765775322914124,
        0.43102434277534485,
        0.9444398283958435
      ],
      "min": [
        -0.4276560842990875,
        -0.4501819610595703,
        0.07228699326515198
      ],
      "type": "VEC3"
    },
    {
      "bufferView": 2,
      "byteOffset": 663816,
      "componentType": 5126,
      "count": 25716,
      "max": [
        0.999855637550354,
        0.9997267127037048,
        0.9999960660934448
      ],
      "min": [
        -0.9998530149459839,
        -0.9999874830245972,
        -1.0
      ],
      "type": "VEC3"
    },
    {
      "bufferView": 3,
      "byteOffset": 236816,
      "componentType": 5126,
      "count": 25716,
      "max": [
        0.9843137264251709,
        0.9725490212440491,
        0.9882352948188782,
        1.0
      ],
      "min": [
        0.7843137383460999,
        0.6509804129600525,
        0.5921568870544434,
        1.0
      ],
      "type": "VEC4"
    },
    {
      "bufferView": 1,
      "byteOffset": 118408,
      "componentType": 5126,
      "count": 25716,
      "max": [
        0.9908900260925293,
        0.9985799789428711
      ],
      "min": [
        0.008609999902546406,
        0.006479999981820583
      ],
      "type": "VEC2"
    },
    {
      "bufferView": 0,
      "byteOffset": 331776,
      "componentType": 5125,
      "count": 149760,
      "type": "SCALAR"
    }
  ],
  "asset": {
    "extras": {
      "author": "aaidun (https://sketchfab.com/aaidun)",
      "license": "CC-BY-4.0 (http://creativecommons.org/licenses/by/4.0/)",
      "source": "https://sketchfab.com/3d-models/sprout-bfde241c93014269928af8191f831224",
      "title": "Sprout!"
    },
    "generator": "Sketchfab-12.68.0",
    "version": "2.0"
  },
  "bufferViews": [
    {
      "buffer": 0,
      "byteLength": 930816,
      "name": "floatBufferViews",
      "target": 34963
    },
    {
      "buffer": 0,
      "byteLength": 324136,
      "byteOffset": 930816,
      "byteStride": 8,
      "name": "floatBufferViews",
      "target": 34962
    },
    {
      "buffer": 0,
      "byteLength": 972408,
      "byteOffset": 1254952,
      "byteStride": 12,
      "name": "floatBufferViews",
      "target": 34962
    },
    {
      "buffer": 0,
      "byteLength": 648272,
      "byteOffset": 2227360,
      "byteStride": 16,
      "name": "floatBufferViews",
      "target": 34962
    }
  ],
  "buffers": [
    {
      "byteLength": 2875632,
      "uri": "scene.bin"
    }
  ],
  "materials": [
    {
      "doubleSided": true,
      "name": "defaultMat",
      "pbrMetallicRoughness": {
        "metallicFactor": 0.0,
        "roughnessFactor": 0.6
      }
    }
  ],
  "meshes": [
    {
      "name": "Object_0",
      "primitives": [
        {
          "attributes": {
            "COLOR_0": 2,
            "NORMAL": 1,
            "POSITION": 0,
            "TEXCOORD_0": 3
          },
          "indices": 4,
          "material": 0,
          "mode": 4
        }
      ]
    },
    {
      "name": "Object_1",
      "primitives": [
        {
          "attributes": {
            "COLOR_0": 7,
            "NORMAL": 6,
            "POSITION": 5,
            "TEXCOORD_0": 8
          },
          "indices": 9,
          "material": 0,
          "mode": 4
        }
      ]
    },
    {
      "name": "Object_2",
      "primitives": [
        {
          "attributes": {
            "COLOR_0": 12,
            "NORMAL": 11,
            "POSITION": 10,
            "TEXCOORD_0": 13
          },
          "indices": 14,
          "material": 0,
          "mode": 4
        }
      ]
    }
  ],
  "nodes": [
    {
      "children": [
        1
      ],
      "matrix": [
        1.0,
        0.0,
        0.0,
        0.0,
        0.0,
        2.220446049250313e-16,
        -1.0,
        0.0,
        0.0,
        1.0,
        2.220446049250313e-16,
        0.0,
        0.0,
        0.0,
        0.0,
        1.0
      ],
      "name": "Sketchfab_model"
    },
    {
      "children": [
        2,
        3,
        4
      ],
      "name": "Sprout Full.OBJ.cleaner.materialmerger.gles"
    },
    {
      "mesh": 0,
      "name": "Object_2"
    },
    {
      "mesh": 1,
      "name": "Object_3"
    },
    {
      "mesh": 2,
      "name": "Object_4"
    }
  ],
  "scene": 0,
  "scenes": [
    {
      "name": "Sketchfab_Scene",
      "nodes": [
        0
      ]
    }
  ]
}
